PathFileType	4	(X/Y/Z)	C:/Users/opensim2020/Desktop/walking_exp_matlab/subject06_walking12_straigt_04.trc																																																																																																																																														
DataRate	CameraRate	NumFrames	NumMarkers	Units	OrigDataRate	OrigDataStartFrame	OrigNumFrames																																																																																																																																										
100	100	5	48	mm	100	2788	181																																																																																																																																										
Frame#	Time	LFHD			RFHD			LBHD			RBHD			C7			T10			CLAV			STRN			RBAK			LSHO			LUPA			LELB			LFRM			LWRA			LWRB			LFIN			RSHO			RUPA			RELB			RFRM			RWRA			RWRB			RFIN			LASI			RASI			LPSI			RPSI			LTHI			LKNE			LTIB			LANK			LHEE			LTOE			RTHI			RKNE			RTIB			RANK			RHEE			RTOE			*39			*40			*41			*42			*43			*44			*45			*46			*47		
		X1	Y1	Z1	X2	Y2	Z2	X3	Y3	Z3	X4	Y4	Z4	X5	Y5	Z5	X6	Y6	Z6	X7	Y7	Z7	X8	Y8	Z8	X9	Y9	Z9	X10	Y10	Z10	X11	Y11	Z11	X12	Y12	Z12	X13	Y13	Z13	X14	Y14	Z14	X15	Y15	Z15	X16	Y16	Z16	X17	Y17	Z17	X18	Y18	Z18	X19	Y19	Z19	X20	Y20	Z20	X21	Y21	Z21	X22	Y22	Z22	X23	Y23	Z23	X24	Y24	Z24	X25	Y25	Z25	X26	Y26	Z26	X27	Y27	Z27	X28	Y28	Z28	X29	Y29	Z29	X30	Y30	Z30	X31	Y31	Z31	X32	Y32	Z32	X33	Y33	Z33	X34	Y34	Z34	X35	Y35	Z35	X36	Y36	Z36	X37	Y37	Z37	X38	Y38	Z38	X39	Y39	Z39	X40	Y40	Z40	X41	Y41	Z41	X42	Y42	Z42	X43	Y43	Z43	X44	Y44	Z44	X45	Y45	Z45	X46	Y46	Z46	X47	Y47	Z47	X48	Y48	Z48
																																																																																																																																																	
23	0.22	-1513.44434	1649.49597	890.64056	-1382.677	1633.20557	894.90009	-1520.70142	1591.35901	1022.42462	-1392.43359	1581.13647	1025.18591	-1466.18262	1434.25439	1023.56543	-1463.34216	1105.86707	1062.1792	-1466.67444	1355.75464	912.89972	-1480.19116	1179.64905	876.44733	-1395.50952	1263.4624	1098.33484	-1626.00256	1393.22266	971.85986	-1714.99646	1205.88501	926.47235	-1739.67151	1102.68677	885.82086	-1755.32996	1000.7085	775.06781	-1699.11682	950.02045	663.94861	-1745.68237	909.44788	698.71497	-1738.86511	881.24426	613.09326	-1304.52063	1384.38501	959.83588	-1223.74902	1197.05481	1039.18384	-1213.30127	1076.48071	1058.58618	-1193.42822	959.03632	1083.81299	-1216.94958	805.65094	1075.01697	-1180.9303	827.67999	1127.31152	-1175.82043	743.14032	1121.16284	-1582.96313	943.29236	893.47516	-1362.53198	949.87976	879.56097	-1541.77588	973.45306	1048.38049	-1373.88574	971.71387	1030.4845	-1632.62463	637.73792	1002.13177	-1612.57129	476.04807	1038.04871	-1608.74988	246.42618	1159.21472	-1567.31836	87.09811	1227.75415	-1524.05322	81.77721	1272.99646	-1563.75574	39.46695	1092.45789	-1286.79236	626.784	860.25781	-1316.823	512.46906	808.29797	-1316.07336	254.60374	776.7149	-1355.62439	75.21619	720.63391	-1406.56287	44.27446	744.46429	-1343.1283	69.94661	561.99585	-1456.39783	1682.96448	993.94568	NaN	NaN	NaN	NaN	NaN	NaN	NaN	NaN	NaN	NaN	NaN	NaN	NaN	NaN	NaN	NaN	NaN	NaN	NaN	NaN	NaN	NaN	NaN	NaN
24	0.23	-1512.5874	1648.99048	879.95874	-1381.8855	1632.63684	884.10358	-1519.88599	1590.66101	1011.66785	-1391.73816	1580.40222	1014.53766	-1465.39709	1433.63672	1012.55023	-1462.54382	1105.20605	1050.89685	-1465.86633	1355.13477	901.84119	-1479.53503	1179.01343	865.09741	-1394.76868	1262.73193	1087.14075	-1625.2915	1392.48694	960.84937	-1713.83423	1204.75269	916.13892	-1738.28699	1101.40466	875.91711	-1753.72388	1000.68994	764.25305	-1697.19507	952.41541	652.16644	-1743.09436	910.73914	686.36823	-1736.33411	884.04602	600.2132	-1303.71716	1383.70398	948.66278	-1222.94385	1196.55005	1028.22229	-1212.35254	1075.96521	1047.76147	-1192.28369	958.61334	1073.30798	-1215.76648	805.14655	1064.86682	-1179.76379	827.35626	1117.12976	-1174.48376	742.86267	1111.11536	-1582.13	942.37946	882.60913	-1362.21008	949.26434	868.32886	-1540.57056	972.63062	1037.26733	-1372.82373	971.44849	1018.90778	-1631.75684	637.15106	992.83557	-1611.97278	475.6947	1029.81458	-1608.8479	248.12967	1154.91296	-1568.01306	89.89132	1226.35181	-1524.87646	85.37682	1271.82776	-1563.88257	39.47022	1092.2113	-1286.10779	626.18152	848.52026	-1316.94055	511.40988	798.47742	-1316.06067	253.71477	764.8576	-1355.70313	74.59743	708.97107	-1406.56616	43.83874	733.05591	-1344.32312	69.7923	550.32367	-1455.51135	1682.28625	983.28821	NaN	NaN	NaN	NaN	NaN	NaN	NaN	NaN	NaN	NaN	NaN	NaN	NaN	NaN	NaN	NaN	NaN	NaN	NaN	NaN	NaN	NaN	NaN	NaN
25	0.24	-1511.74011	1648.54846	869.21167	-1381.03149	1632.14026	873.26526	-1518.901	1590.02783	1000.87854	-1390.81616	1579.76294	1003.59894	-1464.5614	1433.05603	1001.55347	-1461.67041	1104.60046	1039.46094	-1464.97961	1354.6366	890.81329	-1478.71802	1178.54236	853.86993	-1393.90613	1262.13049	1075.87158	-1624.422	1391.78711	949.7619	-1712.62646	1203.70178	905.8457	-1736.69568	1100.03333	866.18439	-1751.83167	1000.48712	753.70331	-1695.151	954.43744	640.83289	-1740.3219	911.78503	674.53619	-1733.7688	886.47333	588.00104	-1302.83972	1383.21875	937.55029	-1222.01843	1196.04504	1017.05756	-1211.32629	1075.55615	1036.64209	-1191.16577	958.23822	1062.29004	-1214.48181	804.79095	1054.14575	-1178.57788	827.117	1106.33459	-1173.04358	742.63721	1100.4187	-1581.17578	941.62006	871.47754	-1360.86011	949.0946	856.02429	-1539.21313	971.91589	1025.89685	-1371.61597	971.2666	1007.00598	-1630.85425	636.66461	983.20276	-1611.23083	475.34515	1021.15582	-1608.82361	249.96411	1150.20569	-1568.66541	93.00793	1224.72839	-1525.68274	89.36087	1270.31799	-1563.98718	39.48571	1091.86047	-1285.67542	625.45197	837.22137	-1316.62134	510.51709	788.20361	-1316.06433	252.89212	754.10168	-1356.0304	73.49416	699.16095	-1406.67944	43.26811	723.57672	-1345.31274	68.67382	540.43445	-1454.5437	1681.70532	972.51965	NaN	NaN	NaN	NaN	NaN	NaN	NaN	NaN	NaN	NaN	NaN	NaN	NaN	NaN	NaN	NaN	NaN	NaN	NaN	NaN	NaN	NaN	NaN	NaN
26	0.25	-1510.77026	1648.14172	858.38556	-1380.08716	1631.72742	862.36255	-1517.85046	1589.56702	990.07257	-1389.7356	1579.27954	992.67285	-1463.57898	1432.46216	990.6098	-1460.59033	1104.06824	1027.87927	-1463.99927	1354.23621	879.57605	-1477.69287	1178.26123	842.5675	-1392.90015	1261.56897	1064.48572	-1623.44409	1391.17346	938.71057	-1711.28589	1202.73901	895.57318	-1735.0564	1098.76965	856.61554	-1749.58313	1000.05603	743.45215	-1693.00464	955.98138	630.02942	-1737.76709	912.49939	663.25867	-1731.43738	888.47192	576.73706	-1301.84387	1382.87097	926.34698	-1220.93335	1195.7865	1005.75574	-1210.22192	1075.20007	1025.146	-1190.04456	957.89594	1050.72595	-1213.28955	804.22412	1042.72241	-1177.28552	826.80798	1094.93445	-1171.60522	742.39264	1089.09583	-1580.15308	941.01392	860.08771	-1360.07727	948.8042	844.42023	-1537.79822	971.4411	1014.24524	-1370.25562	971.29614	994.87433	-1629.82825	636.16321	973.18896	-1610.39954	475.00299	1011.9444	-1608.76294	252.02072	1145.12122	-1569.20715	96.47081	1222.80676	-1526.40845	93.85015	1268.56543	-1564.01196	39.54426	1091.33215	-1285.30554	624.82959	826.58453	-1316.29114	510.08167	777.91595	-1316.30493	251.86868	744.31055	-1356.49243	71.98819	691.24139	-1407.02966	42.61298	716.36646	-1346.30737	66.61903	532.73505	-1453.5553	1681.24133	961.74603	NaN	NaN	NaN	NaN	NaN	NaN	NaN	NaN	NaN	NaN	NaN	NaN	NaN	NaN	NaN	NaN	NaN	NaN	NaN	NaN	NaN	NaN	NaN	NaN
27	0.26	-1509.82666	1647.90735	847.61438	-1379.12463	1631.46973	851.38049	-1516.771	1589.26294	979.24774	-1388.62073	1578.93213	981.68512	-1462.51514	1431.99719	979.7605	-1459.41272	1103.59766	1016.06183	-1462.87915	1354.03784	868.39685	-1476.51672	1178.14612	831.10138	-1391.75293	1261.00842	1053.0824	-1622.28857	1390.58337	927.69049	-1709.81262	1201.82874	885.30933	-1733.29382	1097.51941	847.24072	-1747.74048	999.61365	733.68628	-1690.72351	957.08783	619.65509	-1734.84497	912.86279	652.52045	-1728.79285	889.93457	565.8056	-1300.77942	1382.75867	915.17365	-1219.7417	1195.58374	994.20105	-1209.03479	1074.95776	1013.43896	-1188.85889	957.60931	1038.8457	-1212.13159	804.15015	1030.77539	-1176.04932	826.5174	1082.83191	-1170.40222	742.04242	1076.85547	-1578.99988	940.59631	848.36847	-1358.65918	948.81323	831.78363	-1536.24121	971.10681	1002.33386	-1368.59973	971.55005	982.72406	-1628.703	635.84863	962.75702	-1609.45215	474.76254	1002.16888	-1608.61133	254.37401	1139.65735	-1569.80371	100.35966	1220.57483	-1527.07593	98.78012	1266.41455	-1564.06238	39.57958	1090.86426	-1285.16846	624.46027	815.90845	-1316.60364	510.30908	767.63184	-1316.51953	250.74312	735.65442	-1356.72717	70.70495	685.38678	-1407.13708	43.42766	712.53235	-1347.67004	61.08238	527.56628	-1452.47498	1680.94629	950.91388	NaN	NaN	NaN	NaN	NaN	NaN	NaN	NaN	NaN	NaN	NaN	NaN	NaN	NaN	NaN	NaN	NaN	NaN	NaN	NaN	NaN	NaN	NaN	NaN
